<svg width="8" height="16" viewBox="0 0 8 16" fill="none" xmlns="http://www.w3.org/2000/svg">
<path fill-rule="evenodd" clip-rule="evenodd" d="M7.83636 15.0373C7.78462 15.0889 7.72315 15.1298 7.65548 15.1577C7.58781 15.1856 7.51527 15.2 7.442 15.2C7.36874 15.2 7.29619 15.1856 7.22852 15.1577C7.16085 15.1298 7.09939 15.0889 7.04765 15.0373L0.363641 8.39193C0.31177 8.34049 0.270616 8.27938 0.242536 8.2121C0.214456 8.14482 0.200001 8.07269 0.200001 7.99985C0.200001 7.92701 0.214456 7.85488 0.242536 7.78761C0.270616 7.72033 0.31177 7.65922 0.363641 7.60777L7.04765 0.962401C7.15224 0.858416 7.29409 0.799998 7.44201 0.799998C7.58992 0.799998 7.73177 0.858416 7.83636 0.962401C7.94095 1.06639 7.99971 1.20742 7.99971 1.35448C7.99971 1.50154 7.94095 1.64257 7.83636 1.74656L1.5456 7.99985L7.83636 14.2531C7.88823 14.3046 7.92939 14.3657 7.95747 14.433C7.98555 14.5003 8 14.5724 8 14.6452C8 14.7181 7.98555 14.7902 7.95747 14.8575C7.92939 14.9248 7.88823 14.9859 7.83636 15.0373Z" fill="white"/>
</svg>
