<svg width="8" height="16" viewBox="0 0 8 16" fill="none" xmlns="http://www.w3.org/2000/svg">
<path fill-rule="evenodd" clip-rule="evenodd" d="M0.16364 0.962697C0.21538 0.911125 0.276846 0.870209 0.344516 0.842291C0.412186 0.814374 0.484731 0.800003 0.557996 0.800003C0.631261 0.800003 0.703806 0.814374 0.771476 0.842291C0.839146 0.870209 0.900612 0.911126 0.952352 0.962697L7.63636 7.60807C7.68823 7.65951 7.72938 7.72062 7.75746 7.7879C7.78554 7.85518 7.8 7.92731 7.8 8.00015C7.8 8.07299 7.78554 8.14512 7.75746 8.21239C7.72938 8.27967 7.68823 8.34078 7.63636 8.39223L0.95235 15.0376C0.84776 15.1416 0.705906 15.2 0.557994 15.2C0.410081 15.2 0.268227 15.1416 0.163637 15.0376C0.0590472 14.9336 0.000289181 14.7926 0.000289206 14.6455C0.000289232 14.4985 0.0590473 14.3574 0.163637 14.2534L6.4544 8.00015L0.163639 1.74685C0.111768 1.69541 0.0706134 1.6343 0.0425334 1.56702C0.0144534 1.49974 -1.09735e-07 1.42762 -9.69993e-08 1.35477C-8.42633e-08 1.28193 0.0144534 1.20981 0.0425334 1.14253C0.0706134 1.07525 0.111768 1.01414 0.16364 0.962697Z" fill="white"/>
</svg>
